<svg width="420" height="420" viewBox="0 0 420 420" fill="none" xmlns="http://www.w3.org/2000/svg">
  <g>
    <g transform="rotate(-12 153 145)">
      <path fill="#D8FF65" d="m153 61 80 48-80 48-80-48 80-48Z"/>
      <path fill="#3B5914" fill-opacity=".42" d="m73 109 80 48v96l-80-48v-96Z"/>
      <path fill="#91BA2B" fill-opacity=".76" d="m233 109-80 48v96l80-48v-96Z"/>
    </g>
    <g transform="rotate(16 267 275)">
      <path fill="#BDF04A" d="m267 191 80 48-80 48-80-48 80-48Z"/>
      <path fill="#304A11" fill-opacity=".38" d="m187 239 80 48v96l-80-48v-96Z"/>
      <path fill="#76A51F" fill-opacity=".7" d="m347 239-80 48v96l80-48v-96Z"/>
    </g>
  </g>
</svg>
